<svg width="48" height="48" viewBox="0 0 48 48" fill="none" xmlns="http://www.w3.org/2000/svg">
<path d="M35.3137 33.3137C33.0745 35.5529 27.9143 40.7132 25.4119 43.2156C24.6308 43.9966 23.3698 43.9972 22.5888 43.2162C20.1266 40.754 15.0806 35.708 12.6863 33.3137C6.4379 27.0653 6.4379 16.9347 12.6863 10.6863C18.9347 4.4379 29.0653 4.4379 35.3137 10.6863C41.5621 16.9347 41.5621 27.0653 35.3137 33.3137Z" stroke="#526BBA" stroke-width="2" stroke-linecap="round" stroke-linejoin="round"/>
<path d="M30 22C30 25.3137 27.3137 28 24 28C20.6863 28 18 25.3137 18 22C18 18.6863 20.6863 16 24 16C27.3137 16 30 18.6863 30 22Z" stroke="#526BBA" stroke-width="2" stroke-linecap="round" stroke-linejoin="round"/>
</svg>
