<svg width="184" height="87" viewBox="0 0 184 87" fill="none" xmlns="http://www.w3.org/2000/svg">
<mask id="path-1-inside-1_13_20" fill="white">
<path fill-rule="evenodd" clip-rule="evenodd" d="M184 0H0V72H24.5656L17 86.75L61.3544 72H184V0Z"/>
</mask>
<path d="M0 0V-2H-2V0H0ZM184 0H186V-2H184V0ZM0 72H-2V74H0V72ZM24.5656 72L26.3452 72.9128L27.8392 70H24.5656V72ZM17 86.75L15.2204 85.8372L12.9866 90.1923L17.6311 88.6478L17 86.75ZM61.3544 72V70H61.0305L60.7233 70.1022L61.3544 72ZM184 72V74H186V72H184ZM0 2H184V-2H0V2ZM2 72V0H-2V72H2ZM24.5656 70H0V74H24.5656V70ZM22.7861 71.0872L15.2204 85.8372L18.7796 87.6628L26.3452 72.9128L22.7861 71.0872ZM17.6311 88.6478L61.9855 73.8978L60.7233 70.1022L16.3689 84.8522L17.6311 88.6478ZM184 70H61.3544V74H184V70ZM182 0V72H186V0H182Z" fill="#EA7AF4" mask="url(#path-1-inside-1_13_20)"/>
</svg>
