<svg width="188" height="87" viewBox="0 0 188 87" fill="none" xmlns="http://www.w3.org/2000/svg">
<mask id="path-1-inside-1_13_16" fill="white">
<path fill-rule="evenodd" clip-rule="evenodd" d="M188 0H0V72H16.9792L11.75 86.75L42.4067 72H188V0Z"/>
</mask>
<path d="M0 0V-2H-2V0H0ZM188 0H190V-2H188V0ZM0 72H-2V74H0V72ZM16.9792 72L18.8642 72.6683L19.8102 70H16.9792V72ZM11.75 86.75L9.86496 86.0817L8.243 90.6568L12.6171 88.5522L11.75 86.75ZM42.4067 72V70H41.9506L41.5396 70.1978L42.4067 72ZM188 72V74H190V72H188ZM0 2H188V-2H0V2ZM2 72V0H-2V72H2ZM16.9792 70H0V74H16.9792V70ZM15.0941 71.3317L9.86496 86.0817L13.635 87.4183L18.8642 72.6683L15.0941 71.3317ZM12.6171 88.5522L43.2738 73.8022L41.5396 70.1978L10.8829 84.9478L12.6171 88.5522ZM188 70H42.4067V74H188V70ZM186 0V72H190V0H186Z" fill="#17A398" mask="url(#path-1-inside-1_13_16)"/>
</svg>
